<svg width="57" height="56" viewBox="0 0 57 56" fill="none" xmlns="http://www.w3.org/2000/svg">
<path d="M19.1667 7C12.7337 7 7.5 12.2337 7.5 18.6667V37.3333C7.5 43.7663 12.7337 49 19.1667 49H37.8333C44.2663 49 49.5 43.7663 49.5 37.3333V18.6667C49.5 12.2337 44.2663 7 37.8333 7H19.1667ZM19.1667 11.6667H37.8333C41.6927 11.6667 44.8333 14.8073 44.8333 18.6667V37.3333C44.8333 41.1927 41.6927 44.3333 37.8333 44.3333H19.1667C15.3073 44.3333 12.1667 41.1927 12.1667 37.3333V18.6667C12.1667 14.8073 15.3073 11.6667 19.1667 11.6667ZM40.1667 14C39.5478 14 38.9543 14.2458 38.5167 14.6834C38.0792 15.121 37.8333 15.7145 37.8333 16.3333C37.8333 16.9522 38.0792 17.5457 38.5167 17.9832C38.9543 18.4208 39.5478 18.6667 40.1667 18.6667C40.7855 18.6667 41.379 18.4208 41.8166 17.9832C42.2542 17.5457 42.5 16.9522 42.5 16.3333C42.5 15.7145 42.2542 15.121 41.8166 14.6834C41.379 14.2458 40.7855 14 40.1667 14ZM28.5 16.3333C22.067 16.3333 16.8333 21.567 16.8333 28C16.8333 34.433 22.067 39.6667 28.5 39.6667C34.933 39.6667 40.1667 34.433 40.1667 28C40.1667 21.567 34.933 16.3333 28.5 16.3333ZM28.5 21C32.3593 21 35.5 24.1407 35.5 28C35.5 31.8593 32.3593 35 28.5 35C24.6407 35 21.5 31.8593 21.5 28C21.5 24.1407 24.6407 21 28.5 21Z" fill="#BB1E1E"/>
</svg>
