<?xml version="1.0" encoding="UTF-8"?>
<svg id="Calque_2" xmlns="http://www.w3.org/2000/svg" viewBox="0 0 654 353.78">
  <defs>
    <style>
      .cls-1 {
        fill: #f6f6f6;
      }

      .cls-2 {
        fill: #feeb18;
      }
    </style>
  </defs>
  <g id="Calque_1-2" data-name="Calque_1">
    <g>
      <path class="cls-2" d="M100.77,195.07c-26.58.11-53.16.23-79.74.37V62.34c25.56-10.23,51.4-19.33,77.73-27.37.17,13.24.33,26.48.5,39.72-16.6,3.69-33.1,7.85-49.5,12.33.05,7.65.07,11.47.13,19.11,12.35-2.8,24.75-5.41,37.18-7.83.15,12.23.29,24.45.43,36.68-12.48,1.53-24.94,3.17-37.38,4.93.05,7.87.08,11.8.13,19.66,16.66-1.53,33.34-2.96,50.02-4.22.17,13.24.33,26.48.5,39.72Z"/>
      <path class="cls-2" d="M167.78,197.23c-42.81.03-46.96-48.22-47.26-81.02-.39-29.03-.78-58.06-1.17-87.08,9.73-2.65,19.54-5.11,29.36-7.36.43,31.85.86,63.7,1.3,95.55-.01,11.42.11,35.36,17.39,34.34,17.15-1,16.33-25.75,16.03-37.54-.42-33.12-.83-66.25-1.25-99.38,9.87-1.88,19.8-3.57,29.73-5.06.35,32.39.7,64.77,1.06,97.16.49,33.12.13,90.35-45.19,90.39Z"/>
      <path class="cls-2" d="M305.44,131.64c19.8-13.73,22.46-40.79,22.41-61.86-.09-40.43-15.16-71.26-60.33-66.64-11.55,1.06-23.04,2.26-34.55,3.62.59,62.65,1.18,125.29,1.77,187.94,9.83-.02,19.66-.03,29.48-.04-.12-18.01-.25-36.02-.37-54.03,1.3-.03,1.96-.05,3.26-.08,2.84-.08,5.89-.15,9.15-.22,7.21,18.06,14.31,36.17,21.36,54.29,11.2,0,22.4-.01,33.6-.01-8.53-21.01-17.12-42-25.78-62.97ZM276.44,95.97c-5.16.2-7.74.31-12.9.56-.11-15.32-.21-30.63-.32-45.94,5.18-.36,7.77-.52,12.95-.81,16.5-1.66,20.86,8.85,20.97,22.09.1,13.6-3.9,24.24-20.7,24.1Z"/>
      <path class="cls-2" d="M402.45.15c-47.88-3.87-55.29,67.8-55.31,99.16-.02,31.57,7.28,97.94,53.02,97.92,45.8-.03,53.81-65.77,54.56-98.08.77-33.04-8.25-95.44-52.27-99ZM424.14,99.36c-.44,13.49-2.44,49.84-23.25,49.14-20.77-.7-23.17-34.48-23.11-49.84.06-14.95,3.24-51.15,23.93-49.82,19.9,1.28,22.94,35.21,22.43,50.52Z"/>
      <path class="cls-2" d="M506.34,17.41c-10.13-2.11-20.33-4.01-30.53-5.7-.71,61.02-1.42,122.04-2.14,183.05,9.83.03,19.66.05,29.49.08.19-15.15.39-30.29.59-45.43.52.03.78.04,1.3.07,39.58,2.86,57.87-19.97,58.42-57.29.55-37.88-17.2-67.14-57.13-74.78ZM512.78,106.6c-3.38-.38-5.07-.56-8.46-.91.19-14.91.39-29.83.58-44.74,3.39.52,5.09.79,8.47,1.34,12.73,1.65,19.86,12.41,19.87,24.58.02,11.95-7.53,22.63-20.46,19.73Z"/>
      <path class="cls-2" d="M604.85,81.63c-.07,8.02-.11,12.03-.19,20.04,12.39,2.59,24.74,5.37,37.05,8.33-.03,10.78-.07,21.56-.1,32.35-12.42-1.87-24.86-3.61-37.31-5.24-.08,8.25-.12,12.37-.2,20.62,16.64,1.43,33.28,2.98,49.9,4.69v33.02c-26.58-.14-53.17-.26-79.75-.37.67-53.36,1.34-106.73,2.01-160.1,26.34,8.04,52.18,17.14,77.74,27.37v33.02c-16.26-5-32.67-9.52-49.15-13.73Z"/>
      <path class="cls-1" d="M66.56,322.14c-18.66,0-31.26-12.75-31.26-30.69s12.35-32.1,31.76-32.1c6.05,0,11.6,1.42,16.39,4.01l17.9-26.91c-10.08-5.67-22.44-8.73-36.05-8.73C28.24,227.72,0,255.11,0,291.69s26.47,62.08,65.55,62.08c14.12,0,27.23-4.01,38.07-10.86l-17.9-26.44c-5.55,3.54-12.35,5.67-19.16,5.67Z"/>
      <rect class="cls-1" x="117.99" y="229.38" width="34.29" height="122.75"/>
      <path class="cls-1" d="M284.88,273.28c0-43.91-41.09-43.91-68.83-43.91h-39.58v122.75h34.29v-34.7h14.37l24.45,34.7h39.08l-29.75-39.89c14.62-5.43,25.97-16.29,25.97-38.95ZM225.63,289.1h-14.87v-29.51h14.87c12.1,0,23.95,0,23.95,14.64s-11.09,14.87-23.95,14.87Z"/>
      <path class="cls-1" d="M373.62,322.14c-18.66,0-31.26-12.75-31.26-30.69s12.35-32.1,31.76-32.1c6.05,0,11.6,1.42,16.39,4.01l17.9-26.91c-10.08-5.67-22.44-8.73-36.05-8.73-37.06,0-65.29,27.38-65.29,63.97s26.47,62.08,65.55,62.08c14.12,0,27.23-4.01,38.07-10.86l-17.9-26.44c-5.55,3.54-12.35,5.67-19.16,5.67Z"/>
      <path class="cls-1" d="M498.16,297.12c0,11.33,0,25.02-19.16,25.02s-19.66-13.69-19.66-25.02v-67.75h-34.29v64.44c0,21.48,0,59.96,53.7,59.96s53.7-38.48,53.7-59.96v-64.44h-34.29v67.75Z"/>
      <path class="cls-1" d="M590.93,263.6c0-3.3,3.53-6.14,11.6-6.14,11.6,0,22.19,4.48,31.77,9.91l13.87-26.2c-12.86-8.03-26.47-13.46-45.38-13.46-28.99,0-46.89,15.11-46.89,35.64,0,39.18,59.25,40.13,59.25,54.06,0,4.01-4.54,6.61-14.12,6.61-10.59,0-23.45-4.01-34.29-11.33l-14.37,26.67c13.36,9.21,30.76,14.4,50.17,14.4,29.24,0,47.65-14.16,47.65-37.06,0-41.31-59.24-38.71-59.24-53.11Z"/>
    </g>
  </g>
</svg>